<svg xmlns="http://www.w3.org/2000/svg" viewBox="0 0 32 32" width="32" height="32">
  <!-- Dubai Skyline Background -->
  <rect width="32" height="32" fill="#1e40af"/>
  
  <!-- Buildings -->
  <rect x="4" y="20" width="3" height="8" fill="#fbbf24"/>
  <rect x="8" y="16" width="2" height="12" fill="#f59e0b"/>
  <rect x="11" y="12" width="3" height="16" fill="#eab308"/>
  <rect x="15" y="8" width="4" height="20" fill="#fbbf24"/>
  <rect x="20" y="14" width="2" height="14" fill="#f59e0b"/>
  <rect x="23" y="18" width="3" height="10" fill="#eab308"/>
  <rect x="27" y="22" width="2" height="6" fill="#fbbf24"/>
  
  <!-- Windows -->
  <rect x="5" y="22" width="1" height="1" fill="#1e40af"/>
  <rect x="9" y="18" width="1" height="1" fill="#1e40af"/>
  <rect x="12" y="14" width="1" height="1" fill="#1e40af"/>
  <rect x="16" y="10" width="1" height="1" fill="#1e40af"/>
  <rect x="21" y="16" width="1" height="1" fill="#1e40af"/>
  <rect x="24" y="20" width="1" height="1" fill="#1e40af"/>
  <rect x="28" y="24" width="1" height="1" fill="#1e40af"/>
  
  <!-- Sun -->
  <circle cx="26" cy="6" r="2" fill="#fbbf24"/>
</svg>
