<svg xmlns="http://www.w3.org/2000/svg" viewBox="0 0 100 100" width="100" height="100">
  <!-- Background -->
  <rect width="100" height="100" fill="#0ea5e9"/>
  
  <!-- Building 1 (Left) -->
  <rect x="10" y="50" width="15" height="40" fill="#fbbf24" stroke="#ffffff" stroke-width="1"/>
  
  <!-- Building 2 (Center) -->
  <rect x="30" y="30" width="20" height="60" fill="#f59e0b" stroke="#ffffff" stroke-width="1"/>
  
  <!-- Building 3 (Right) -->
  <rect x="55" y="40" width="15" height="50" fill="#eab308" stroke="#ffffff" stroke-width="1"/>
  
  <!-- Tall Building (Burj Style) -->
  <rect x="75" y="15" width="12" height="75" fill="#ffffff" stroke="#0ea5e9" stroke-width="1"/>
  
  <!-- Windows -->
  <rect x="12" y="55" width="3" height="3" fill="#ffffff"/>
  <rect x="17" y="55" width="3" height="3" fill="#ffffff"/>
  <rect x="32" y="35" width="4" height="4" fill="#ffffff"/>
  <rect x="38" y="35" width="4" height="4" fill="#ffffff"/>
  <rect x="57" y="45" width="3" height="3" fill="#ffffff"/>
  <rect x="62" y="45" width="3" height="3" fill="#ffffff"/>
  <rect x="77" y="20" width="2" height="2" fill="#0ea5e9"/>
  <rect x="77" y="25" width="2" height="2" fill="#0ea5e9"/>
  
  <!-- Smart Data Points -->
  <circle cx="50" cy="15" r="3" fill="#ef4444"/>
  <circle cx="45" cy="12" r="2" fill="#ef4444"/>
  <circle cx="55" cy="12" r="2" fill="#ef4444"/>
</svg>
