<svg xmlns="http://www.w3.org/2000/svg" viewBox="0 0 100 100" width="100" height="100">
  <!-- Background -->
  <rect width="100" height="100" fill="#1f2937"/>
  
  <!-- Main Building -->
  <rect x="20" y="35" width="60" height="55" fill="#3b82f6" stroke="#ffffff" stroke-width="1"/>
  
  <!-- Top Section -->
  <rect x="25" y="25" width="50" height="10" fill="#1d4ed8" stroke="#ffffff" stroke-width="1"/>
  
  <!-- Smart Antenna -->
  <line x1="50" y1="25" x2="50" y2="15" stroke="#10b981" stroke-width="3"/>
  <circle cx="50" cy="15" r="3" fill="#10b981"/>
  
  <!-- Windows (Binary Code Style) -->
  <rect x="25" y="40" width="6" height="6" fill="#ffffff"/>
  <rect x="35" y="40" width="6" height="6" fill="#ffffff"/>
  <rect x="45" y="40" width="6" height="6" fill="#ffffff"/>
  <rect x="55" y="40" width="6" height="6" fill="#ffffff"/>
  <rect x="65" y="40" width="6" height="6" fill="#ffffff"/>
  
  <rect x="25" y="50" width="6" height="6" fill="#ffffff"/>
  <rect x="35" y="50" width="6" height="6" fill="#ffffff"/>
  <rect x="45" y="50" width="6" height="6" fill="#ffffff"/>
  <rect x="55" y="50" width="6" height="6" fill="#ffffff"/>
  <rect x="65" y="50" width="6" height="6" fill="#ffffff"/>
  
  <!-- Door -->
  <rect x="42" y="70" width="16" height="20" fill="#1f2937"/>
  
  <!-- Smart Data Flow -->
  <line x1="15" y1="20" x2="25" y2="20" stroke="#ef4444" stroke-width="2"/>
  <line x1="75" y1="20" x2="85" y2="20" stroke="#ef4444" stroke-width="2"/>
</svg>
